
        <svg xmlns="http://www.w3.org/2000/svg" xmlns:xlink="http://www.w3.org/1999/xlink" version="1.1" width="3285.714285714286" height="2590.9499714332296" viewBox="0 -257.1428571428571 3285.714285714286 2590.9499714332296">
			
			<g transform="scale(14.285714285714283) translate(10, 10)">
				<defs id="SvgjsDefs2152"/><g id="SvgjsG2153" featureKey="monogramFeature-0" transform="matrix(1.760290700909208,0,0,1.760290700909208,53.63906487722146,-55.45515643016521)" fill="#fff"><path d="M19.44 24.659999999999997 c-0.18 0.66 -0.36 1.5 -0.54 2.46 c5.58 -0.36 11.28 -0.54 16.44 -0.72 c12.6 -0.48 17.04 -0.24 18.18 -0.66 c1.14 -0.36 1.08 0.12 0.66 0.54 c-0.24 0.3 -1.26 1.08 -2.22 1.08 c-0.9 0.06 -9.36 0.06 -16.92 0.36 c-6.24 0.24 -11.7 0.48 -16.44 0.84 c-0.78 3.72 -1.8 9.24 -2.76 16.8 c-1.44 10.92 -4.26 27.6 -4.5 29.58 c-0.18 1.98 -1.56 4.08 -1.56 2.52 s1.08 -10.02 4.5 -31.86 c1.26 -8.16 2.28 -13.5 3.06 -16.98 c-3.84 0.3 -7.2 0.6 -9.9 1.02 c-7.32 1.14 -13.14 2.58 -13.38 4.02 c-0.18 1.02 -0.84 0.9 -1.14 0.24 c-0.42 -1.14 0.06 -2.34 9.96 -4.68 c4.38 -1.02 9.48 -1.62 14.76 -1.98 c1.08 -4.5 1.74 -5.16 2.22 -5.64 c0.9 -0.84 1.68 0.18 1.02 0.6 c-0.72 0.42 -1.08 0.96 -1.44 2.46 z"/></g><g id="SvgjsG2154" featureKey="nameFeature-0" transform="matrix(1.4910270626326143,0,0,1.4910270626326143,-1.7767113506750356,82.8077872036038)" fill="#fff"><path d="M7.68 40 c-0.36 0 -0.6 -1.16 -0.28 -1.2 c2.72 -0.32 4.56 -0.92 4.56 -3.08 l0 -20.04 c0 -0.96 -0.32 -1.28 -1.28 -1.28 l-1.28 0 c-4.04 0 -5.84 0.68 -6.76 2.6 c-0.36 0.72 -1.56 0.6 -1.44 0 c0.32 -1.56 0.64 -2.64 0.88 -4.68 c0.08 -0.68 0.56 -0.64 1.24 -0.56 c1.52 0.16 3.52 0.24 10.92 0.24 s10.36 -0.08 11.88 -0.24 c0.72 -0.08 1.4 -0.12 1.16 0.56 c-0.56 1.84 -0.96 3.16 -1.2 4.68 c-0.12 0.68 -1.12 0.64 -1.24 0 c-0.4 -1.88 -2.04 -2.6 -5.6 -2.6 l-1.44 0 c-0.96 0 -1.52 0.32 -1.52 1.28 l0 20.04 c0 2.16 1.88 2.76 4.56 3.08 c0.32 0.04 0.08 1.2 -0.28 1.2 l-12.88 0 z M65.813 38.72 c0.56 0.08 0.4 1.28 -0.08 1.28 l-9.96 0 c-0.52 0 -0.6 -1.2 -0.12 -1.28 c1.52 -0.24 3.04 -0.84 1.56 -4.32 l-0.6 -1.4 c-0.36 -0.92 -1.24 -0.96 -2.52 -0.96 l-8.32 0 c-1.2 0 -2.08 0.04 -2.44 0.96 l-0.56 1.4 c-1.48 3.56 0.04 4.04 2.04 4.32 c0.48 0.08 0.4 1.28 -0.12 1.28 l-8.44 0 c-0.52 0 -0.64 -1.2 -0.12 -1.28 c1.68 -0.24 2.64 -0.88 4.12 -4.32 l6.76 -15.4 c1.56 -3.52 2.04 -5.28 2.04 -6.8 c0 -0.24 2.84 -0.88 2.96 -0.6 l9.76 22.76 c1.48 3.48 2.44 4.12 4.04 4.36 z M54.093 30 c0.6 0 1.28 -0.08 1.04 -0.6 l-5.12 -12.16 l-5.12 12.16 c-0.24 0.52 0.4 0.6 1 0.6 l8.2 0 z M103.546 39.08 c0.32 0 0.28 1 0 1.12 c-2.24 0.84 -5.56 0.56 -7.76 -2.28 l-6.24 -8 c-1.68 -2.16 -3.88 -2.56 -6.8 -2.6 l0 7.84 c0 2.8 1.84 3.28 4.52 3.6 c0.28 0.04 0.08 1.24 -0.24 1.24 l-11.56 0 c-0.32 0 -0.56 -1.2 -0.24 -1.24 c1.96 -0.28 3.36 -1 3.36 -3.6 l0 -18.08 c0 -2.64 -1.4 -3.4 -3.36 -3.92 c-0.32 -0.08 -0.12 -1.28 0.24 -1.24 c1.6 0.2 3.36 0.24 4.56 0.24 c2.68 0 5.24 -0.24 7.08 -0.24 c5.72 0 9.92 2.4 9.92 7.4 c0 4.76 -3.96 7.04 -7 7.24 l0 0.2 c1.48 0 2.48 0.64 4.16 2.76 l6.16 7.68 c1.12 1.44 2.2 1.88 3.2 1.88 z M83.986 25.6 c6 0 8.64 -1.04 8.64 -5.24 c0 -4.36 -2.88 -6.52 -6.56 -6.52 c-2.44 0 -3.32 0.96 -3.32 3.24 l0 8.52 l1.24 0 z M141.679 38.72 c0.56 0.08 0.4 1.28 -0.08 1.28 l-9.96 0 c-0.52 0 -0.6 -1.2 -0.12 -1.28 c1.52 -0.24 3.04 -0.84 1.56 -4.32 l-0.6 -1.4 c-0.36 -0.92 -1.24 -0.96 -2.52 -0.96 l-8.32 0 c-1.2 0 -2.08 0.04 -2.44 0.96 l-0.56 1.4 c-1.48 3.56 0.04 4.04 2.04 4.32 c0.48 0.08 0.4 1.28 -0.12 1.28 l-8.44 0 c-0.52 0 -0.64 -1.2 -0.12 -1.28 c1.68 -0.24 2.64 -0.88 4.12 -4.32 l6.76 -15.4 c1.56 -3.52 2.04 -5.28 2.04 -6.8 c0 -0.24 2.84 -0.88 2.96 -0.6 l9.76 22.76 c1.48 3.48 2.44 4.12 4.04 4.36 z M129.959 30 c0.6 0 1.28 -0.08 1.04 -0.6 l-5.12 -12.16 l-5.12 12.16 c-0.24 0.52 0.4 0.6 1 0.6 l8.2 0 z"/></g>
			</g>
		</svg>
	